<?xml version="1.0" encoding="utf-8"?>
<!-- Generator: Adobe Illustrator 22.0.1, SVG Export Plug-In . SVG Version: 6.00 Build 0)  -->
<svg version="1.1" xmlns="http://www.w3.org/2000/svg" xmlns:xlink="http://www.w3.org/1999/xlink" x="0px" y="0px"
	 viewBox="0 0 337.3 303.2" style="enable-background:new 0 0 337.3 303.2;" xml:space="preserve">
<style type="text/css">
	.st0{fill:#FFFFFF;}
	.st1{fill:#FAE71F;}
</style>
<g id="Слой_4">
	<circle class="st0" cx="174.8" cy="154.5" r="121"/>
</g>
<g id="Слой_1">
	<g>
		<path class="st1" d="M167.2,296.7c-1.4-0.3-2.9-0.2-4.4-0.2c-6.6-0.2-13.2-0.7-19.6-2.3c-1.2-0.3-2.4-0.7-3.4-1.5
			c-0.6-0.5-1.1-1.1-0.8-2c0.2-0.9,0.6-1.4,1.7-1.4c9.8,0.1,19.6,0.2,29.4,0.2c25.2,0.1,50.3,0.3,75.5,0.4c0.8,0,1.3-0.2,1.7-1
			c2.7-4.7,5.5-9.3,8.2-14c0.2-0.3,0.3-0.6,0.5-1c-0.6,0.3-0.7,0.7-0.9,1.1c-2.7,4.5-5.5,9.1-8.2,13.6c-0.4,0.7-0.8,0.9-1.6,0.9
			c-19.2-0.4-38.5-0.7-57.7-1.1c-12.9-0.2-25.8-0.5-38.6-0.8c-2.5,0-5.1,0-7.9,0c0.7-1,1.2-1.7,1.6-2.4c1.2-2.1,0.1-3.9-2.3-3.9
			c-6.5,0-13,0.3-19.5-0.1c-6.5-0.3-12.7-1.9-18.6-4.7c-0.8-0.4-1.6-0.9-2.2-1.6c-1.2-1.3-1.3-2.7-0.2-4.1c0.9-1.2,2.1-2,3.3-2.7
			c4.5-2.6,9.4-4.1,14.4-5.3c1-0.3,2-0.4,3-0.8c2.7-0.9,5.5-1,8.3-0.9c13.9,0.9,27.8,1.2,41.7,1.7c20,0.6,39.9,0.7,59.9,1.2
			c0.9,0,1.4-0.2,1.9-1c3.6-6.2,7.3-12.3,10.9-18.4c2.8-4.7,5.5-9.4,8.3-14c6.1-10.2,12.3-20.3,18.4-30.4
			c8.4-14.1,17.3-27.9,26-41.8c0.5-0.8,0.5-1.4,0.1-2.3c-12.1-21.6-24.7-42.9-37.2-64.3c-3.2-5.4-6.4-10.9-9.5-16.3
			c-0.1-0.2-0.3-0.4-0.5-0.7c-0.3,0.4,0.1,0.6,0.2,0.8c15.2,26.9,30.3,53.8,45.6,80.6c0.5,0.9,0.3,1.3-0.1,1.9
			c-7.6,12.7-15.2,25.3-22.8,38c-5.7,9.4-11.4,18.9-17,28.3c-4.5,7.5-8.8,15.1-13.4,22.6c-3.1,5.1-6.3,10.2-9.7,15.1
			c-0.4,0.6-0.8,0.8-1.5,0.7c-5.6-0.5-11.2-0.5-16.8-0.8c-9.8-0.4-19.6-0.7-29.3-1.1c-7.6-0.3-15.2-0.6-22.8-1
			c-7.7-0.4-15.3-0.8-22.9-1.2c-0.6,0-1.1-0.1-1.7-0.2c3.6-0.8,7.3-1.4,10.9-2c9.9-1.4,19.9-2.3,29.9-2.2
			c11.2,0.1,22.4,0.4,33.5,0.6c4.8,0.1,9.5,0.1,14.3,0.4c1.8,0.1,2.5-0.5,3.3-1.9c6.8-11.2,13.6-22.3,20.4-33.4
			c0.6-0.9,1-1.1,1.9-0.5c1.8,1,1.8,1,2.8-0.8c5-9,10.1-18.1,15.1-27.1c6.3-11.2,12.7-22.3,19.2-33.3c0.7-1.2,0.4-1.9-0.2-2.9
			c-10.8-19.3-21.5-38.6-32.2-57.9c-8.2-14.7-16.3-29.4-24.5-44.1c-0.4-0.8-0.9-1.1-1.8-1.1c-14.8-0.1-29.6,0.1-44.5,0.3
			c-8.2,0.1-16.5,0.3-24.7,0.6c-6.5,0.2-13.1,0.5-19.7,0.7c0.3,0.5,1.1,0.3,1.1,0.9c0,0.5-0.6,0.6-1,1.1c0.5,0.2,0.9,0.1,1.3,0.1
			c25.6-0.2,51.2-0.3,76.7-0.3c3,0,6,0.1,9.1,0c0.8,0,1.2,0.3,1.5,0.9c18.7,32.7,37.4,65.4,56,98.2c0.9,1.5,1,2.6-0.1,4.3
			c-3.8,5.9-7.3,12-10.9,17.9c-0.2,0.4-0.4,0.7-0.7,1.1c-0.3-0.5,0.1-0.7,0.2-1c3.6-6.2,7.2-12.4,11-18.6c0.7-1.1,0.6-1.9,0-3
			c-5.9-10.2-11.8-20.5-17.7-30.7c-12.9-22.3-25.8-44.6-38.7-66.9c-0.4-0.7-0.8-0.9-1.5-0.9c-38,0.2-76,0.4-114,0.5
			c-0.7,0-1.1,0.2-1.5,0.9C92.6,91,73.7,123.6,54.8,156.3c-0.4,0.7-0.3,1.2,0,1.9c8.3,15.8,16.9,31.5,25,47.5
			c2.5,4.9,5.1,9.8,7.7,14.6c2.4,4.5,4.8,9,7.3,13.4c3.6,6.3,6.8,12.7,10.2,19.1c0.1,0.1,0.1,0.3,0.2,0.5c-1.7-0.3-2.6,0.8-3.4,2
			c-0.5,0.8-1,1.7-1.6,2.4c-1.1,1.5-2.3,1.7-3.9,0.8c-1.4-0.8-2.5-2-3.6-3.3c-4-4.8-7.1-10.2-10.2-15.6c-2-3.5-4-7.1-5.9-10.6
			c-0.4-0.6-0.6-0.8-1.3-0.4c-0.8,0.6-2,0.8-2.4,1.6c-0.3,0.8,0.6,1.7,1,2.6c5.3,11.4,10.2,22.9,13.8,35c1.3,4.5,2.6,9.1,2.7,13.8
			c0,1.2,0,2.3-0.3,3.4c-0.5,1.7-1.7,2.3-3.3,1.7c-1.8-0.6-3.2-1.8-4.6-3c-4.5-4.1-8.1-8.8-11.7-13.6c-9.3-12.8-17.6-26.3-25.8-39.8
			C30,206.5,16.3,182.2,2.3,158c-0.5-0.8-0.2-1.3,0.2-2c14.3-24.5,28.7-48.9,43-73.4c13.5-23,26.2-46.4,39.4-69.5
			c0.6-1,1.2-1.3,2.3-1.3c28.7-0.3,57.4-0.6,86.1-0.9c26.7-0.2,53.4,0.3,80.1,0.4c0.8,0,1,0.4,1.3,1c8.6,15.1,17,30.4,25.2,45.7
			c17.7,32.8,35.9,65.3,54.4,97.7c0.6,1,0.6,1.7,0,2.8c-23.6,39.9-47.6,79.5-72.4,118.6c-3.8,5.9-7.4,12-11,18c-0.4,0.7-0.8,1-1.6,1
			c-19.2-0.2-38.4,0.1-57.6,0.4c-1.4,0-2.9-0.1-4.3,0.2C180.7,296.7,174,296.7,167.2,296.7z M298.8,106.8c-0.1,0.6,0.2,1,0.4,1.4
			c8.5,16.1,17.2,32.1,26.1,47.9c0.4,0.7,0.4,1.3,0,2c-5.4,8.9-10.8,17.8-16.2,26.7c-4.6,7.6-9.1,15.2-13.6,22.8
			c-0.1,0.2-0.5,0.5-0.2,1c1.2-2.3,2.7-4.4,4-6.6c3.9-6.7,8-13.2,12-19.8c4.9-8,9.7-16.1,14.6-24.1c0.5-0.8,0.4-1.3,0-2.1
			c-6.8-12-13.4-24-19.9-36.1C303.6,115.6,301.2,111.2,298.8,106.8z"/>
	</g>
	<g>
		<path d="M133.4,191.8c0.4-0.1,0.7-0.1,0.9-0.1c0.3,0,0.4,0,0.5,0c1.5,0,2.6,0.4,3.3,1.2c0.7,0.8,1.1,1.7,1.1,2.5
			c0,2.1-1.6,4.2-5,6.2c-4.3,2.4-8.2,3.6-11.7,3.7c-5,0.1-8.6-3.1-10.7-9.6c-0.8-2.5-1.6-6.9-2.3-13c-0.3-3.1-0.6-5.8-0.8-8.2
			c-0.2-2.4-0.3-4.5-0.3-6.3l-0.1-8.1l0-2.1c-1,1.2-1.9,2.2-2.5,2.9c-0.7,0.7-1.2,1.3-1.5,1.6c-0.4,0.4-1,1.1-1.7,1.9
			c-0.7,0.8-1.7,2-2.8,3.3l0,2.9c0.1,3.9-0.2,7.1-0.9,9.6c-0.8,3-2.2,4.7-4,5.1c-0.3,0.2-0.5,0.3-0.9,0.3l-0.6,0
			c-1.4,0-2-1.1-2.1-3.4c-0.1-3.2,0.5-5.8,1.7-7.8c0.3-0.4,0.6-0.8,1-1.4c0.4-0.6,0.9-1.2,1.4-1.9l0-1.5l-0.2-12.3
			c-0.1-0.6-0.1-1.2-0.1-2c0-0.8-0.1-1.7-0.1-2.7c-0.1-0.4-0.1-0.8-0.1-1.2c0-0.4-0.1-0.8-0.1-1.2l-0.1-6.9l-1.5,0
			c0.1,5-1.1,11-3.7,18.2c-2.9,8.6-7,15.7-12.3,21.3c-6.5,6.9-14,10.4-22.5,10.6c-4.1,0.2-7.1-0.4-9-1.8c-1.9-1.4-2.9-3.4-3-5.9
			c-0.1-4.1,1.7-8,5.4-11.6c3.9-4.1,8.1-6.2,12.8-6.3c2.2,0,3.3,0.7,3.3,2.1c0,0.3,0,0.7-0.1,1.3c-0.3,0.6-0.6,0.9-0.8,0.9
			c-0.1,0-0.2-0.2-0.4-0.3c-0.1-0.2-0.3-0.4-0.6-0.7l-1.5-0.6c-0.7-0.3-1.8-0.4-3.1-0.4c-3,0-5.3,1.5-6.9,4.3
			c-1.6,2.5-2.4,5.3-2.4,8.6c0,2.8,0.7,5,1.8,6.8c1,1.9,2.7,2.8,5.1,2.7c6.4-0.1,12.2-2.7,17.4-7.8c2-2,3.9-4.3,5.8-7.2
			c1.9-2.8,3.7-6.1,5.5-9.7c1.1-2.4,2.2-5,3.1-7.9c1-2.8,1.9-5.9,2.8-9.3c0.3-0.9,0.6-1.9,0.8-2.9c0.2-1,0.4-2,0.6-3.1l0.4-1.2
			c-0.6,0-1,0-1.4,0c-0.4,0-0.7-0.1-0.9-0.1c-1.5-0.2-2.9-0.3-4.2-0.4c-1.3-0.1-2.5-0.1-3.7-0.1c-4.5,0.1-8,1.9-10.3,5.5
			c-1.7,2.8-2.6,5.9-2.5,9.2c0,2,0.3,3.1,0.9,3.2c0.3,0.1,0.7,0.1,1,0.1c2,0,3.8-0.6,5.2-1.8c-1.9,2.4-4.2,3.6-6.7,3.6l-0.4,0
			c-0.3,0-0.5-0.1-0.5-0.3c-2.5-0.2-4.4-0.9-5.7-2.2c-1.3-1.2-2-2.7-2-4.5c-0.1-3.4,1.6-6.8,5.1-10.1c3.5-3.4,7.6-5.2,12.5-5.3
			c4.6-0.1,9.3,0.2,14,0.9l1.9,0.3c0.7,0,1.2,0,1.5,0.1c0.3,0.1,0.6,0.1,0.9,0.1c1.2,0,2.9-0.3,5-0.7c1.7-0.2,2.6-0.8,2.5-1.7l0-1.3
			c-0.2-0.3-0.3-0.5-0.3-0.9l0-0.3c0-0.2,0.1-0.3,0.3-0.3c0.7,0.2,1,0.6,1,1.3l0,1.2c-0.2,1.4-0.8,2.3-1.7,2.8
			c-0.6,0.3-1.7,0.6-3.3,0.8c-0.9,0.3-1.9,0.5-3.2,0.5c0.1,0.2,0.2,0.7,0.4,1.4c0.1,0.7,0.3,1.7,0.6,3c0.1,0.6,0.2,1.4,0.3,2.5
			c0.1,1.1,0.3,2.6,0.5,4.3c0.4,3.5,0.6,6.3,0.8,8.3l0,3l1.1-1.3c1.4-1.7,2.8-3.3,4.1-4.9c1.4-1.6,2.7-3.1,4.1-4.6
			c0.1-1.4,0.7-3.1,1.6-5.1c1.5-3.1,3.1-4.7,4.7-4.9c0.8,0,1.2,0.5,1.2,1.5c0,1.5-1.6,4.1-4.9,7.9c-0.2,1-0.3,2.1-0.4,3.2
			c-0.1,1.1-0.1,2.2-0.1,3.4c0.1,4.4,0.6,10,1.7,16.7c1,6.7,2.2,11.5,3.4,14.3c3,7,6.9,10.4,11.7,10.3c1.9,0,3.7-0.8,5.3-2.3
			c1.7-1.5,2.6-3.1,2.6-4.7C135.7,194,134.9,192.8,133.4,191.8z M95.5,173.4c-0.2,0.3-0.5,0.8-0.9,1.4c-0.4,0.6-0.7,1-0.9,1.3
			c-1.2,2.2-1.7,4.1-1.7,5.8c0,2,0.6,3,1.8,2.9l0.3,0l0.3-0.2c0.2-0.2,0.4-0.7,0.5-1.5c0.2-1.2,0.3-2.5,0.4-3.8
			c0.1-1.3,0.1-2.7,0.1-4.1L95.5,173.4z"/>
		<path d="M146.1,162.2c0.3,0,0.4,0.1,0.4,0.4c0,0.6-0.5,2.2-1.6,5c-1.1,2.8-2.2,5.1-3.5,6.9c-4.2,5.6-7.9,8.5-11.2,8.5
			c-3.7,0.1-6.7-1.7-9.1-5.2c-1.9-3-2.8-6.9-2.9-11.5c0-1.5,0.1-3,0.4-4.5c-0.5-0.3-1.1-0.8-1.7-1.6c-0.7-0.7-1-1.2-1-1.5l1.6,0.1
			c0.8,0.4,1.4,0.6,1.7,0.8c0.4-1.9,1.2-4,2.4-6.4c2.5-4.3,5.1-6.5,8-6.5c0.4,0,0.8,0.4,1.4,1.1c0.2,0.2,0.3,0.4,0.4,0.8
			c0.1,0.4,0.3,0.7,0.4,0.9c0.5-0.3,1-0.4,1.3-0.4c1.1,0,2.1,0.5,3,1.7c0.8,1.1,1.2,2.4,1.3,3.9c0,2.5-0.5,4.9-1.8,7.1
			c-1.7,2.9-4.2,4.4-7.3,4.4c-1,0-2-0.1-3.1-0.5l0,1c0.1,3.3,0.8,6.4,2.3,9.2c1.4,2.6,3.1,3.9,4.8,3.8c1.7,0,4-2,6.8-5.9
			c0.7-1,1.5-2.3,2.5-3.9c0.9-1.6,1.9-3.2,2.8-4.9C145.4,163.4,145.9,162.4,146.1,162.2z M132.4,151.2c-2.2,0.6-4,2.7-5.3,6.2
			c-0.5,1.3-1.1,3.2-1.7,6c1,0.4,1.7,0.6,2,0.6c1.2,0,2.3-0.4,3.4-1.3c1.1-0.8,1.9-1.8,2.5-3c1.3-2.4,1.9-4.5,1.8-6.4
			c0-0.9-0.3-1.7-0.9-2.3c-0.6-0.7-1.3-1-2.3-1.1L132.4,151.2z"/>
		<path d="M149.5,115.2c1.5,0.1,3,0.9,4.7,2.3c1.7,1.5,3.4,3.6,5,6.4c0.9,1.5,1.7,3.4,2.4,5.6c0.7,2.3,1.3,4.7,1.8,7.4
			c0.5,2.7,0.9,5.5,1.1,8.5c0.2,3,0.3,5.9,0.3,8.8c-0.1,3.4-0.3,6.7-0.9,9.7c-0.6,3.1-1.4,5.7-2.4,7.9c0.6,0.3,1.4,0.1,2.3-0.5
			c1-0.6,1.9-1.2,2.8-1.9c0.9-0.7,1.6-1.3,2.1-1.7c0.5-0.5,0.7-0.5,0.4-0.2c-0.6,0.8-1.1,1.6-1.5,2.3c-0.4,0.7-1,1.4-1.6,2
			c-0.6,0.6-1.4,1.1-2.2,1.6c-0.9,0.4-2,0.7-3.4,0.9c-3,5.3-6.6,8-10.7,8.1c-1.3,0-2.4-0.7-3.2-2.1c-0.8-1.4-1.4-3.1-1.7-5.2
			c-0.3-2.1-0.4-4.3-0.2-6.8c0.2-2.5,0.6-4.8,1.3-6.8c0.7-2.1,1.6-3.8,2.7-5.3c1.1-1.4,2.5-2.1,4.1-2.2c1.1,0,2.4,0.8,3.7,2.4
			c0.7,0.8,1.3,1.5,1.8,2.1c0.5,0.6,0.9,1.4,1.3,2.5c0.2-2.7,0.3-5.3,0.3-8c0-4.8-0.3-9.4-0.8-13.8c-0.6-4.4-1.4-8.2-2.4-11.5
			c-1-3.3-2.2-6-3.6-8c-1.4-2-2.8-3-4.3-3.2c-1.2-0.1-2.2,0.2-3.1,0.8c-0.9,0.6-1.6,1.4-2.2,2.4c-0.6,1-1,2.1-1.4,3.3
			c-0.3,1.2-0.5,2.3-0.6,3.4c-0.2,1.9-0.2,3.7,0,5.4c0.2,1.7,0.5,3.3,1,4.8c0.5,1.5,1,2.8,1.7,4.1c0.7,1.2,1.5,2.3,2.3,3.2
			c1,1.1,1.8,1.8,2.6,2.1c0.8,0.3,1.5,0.1,2.1-0.7l0.2-0.2c1.7-2,2.4-4.2,1.8-6.7c-0.1-1-0.4-1.7-0.9-2.1c-0.4-0.5-0.7-0.6-0.9-0.5
			c-0.2,0-0.3,0-0.3-0.1l0.2-0.2c0.2-0.3,0.5-0.4,0.9-0.4c0.4,0,0.8,0.2,1,0.6c0.5,0.6,0.9,1.3,1.1,2.3c0.2,1,0.2,2.1-0.1,3.4
			c-0.1,0.7-0.3,1.4-0.6,2c-0.3,0.7-0.7,1.3-1.3,1.9c-1.5,1.5-3.2,2.2-5,2.1c-1.9-0.1-3.5-0.9-5-2.4c-1.4-1.6-2.5-3.5-3.3-5.7
			c-0.7-2.2-1.1-4.8-0.9-7.6c-0.2-1.2,0-2.8,0.4-4.8c0.4-1.9,1.1-3.8,2.1-5.6c0.9-1.8,2.1-3.3,3.6-4.5
			C145.9,115.6,147.6,115.1,149.5,115.2z M149.9,165.8c-0.2,0.8-0.4,2-0.5,3.5c-0.1,1.6,0,3.1,0.2,4.6c0.2,1.5,0.5,2.9,1,4
			c0.5,1.2,1.2,1.7,2.2,1.7c1.7,0,3.3-2,5.1-6c0.2-0.5,0.3-1,0.4-1.4c0.1-0.4,0.2-0.8,0.3-1.2c0.1-0.4,0.1-0.8,0.2-1.3
			c0.1-0.5,0.2-1.1,0.3-1.8c-0.1-0.5-0.3-1.2-0.7-2.1c-0.4-0.9-1-1.7-1.6-2.5c-0.6-0.8-1.3-1.5-2-2.1c-0.7-0.6-1.3-0.9-1.8-0.9
			c-0.2,0-0.4,0.2-0.7,0.6c-0.3,0.4-0.5,0.8-0.8,1.4c-0.3,0.6-0.6,1.2-0.9,1.8c-0.3,0.7-0.6,1.3-0.7,1.9L149.9,165.8z"/>
		<path d="M175.6,184.9c-0.9,0-1.8-0.4-2.7-1.1c-1.6-2.2-2.4-4.7-2.5-7.8c0-0.6,0.1-1.4,0.2-2.5c0.1-1.1,0.4-2.5,0.7-4.2
			c0.3-1.7,0.7-3.2,1-4.5c0.3-1.3,0.6-2.3,0.8-3.1c0.2-0.8,0.4-1.4,0.4-1.7c0-0.3,0-0.5,0-0.5c-0.2,0-0.5,0.6-1,1.7
			c-0.3,0.6-0.5,1.2-0.8,1.8c-0.3,0.6-0.6,1.3-1,2c-0.4,0.7-0.7,1.3-0.9,1.8c-0.3,0.5-0.5,0.9-0.6,1.1c-0.3-0.4-0.3-0.7-0.2-0.9
			c2.3-6.3,3.9-10,4.7-11.1c0.3-1.4,1-2.9,1.9-4.4c0.8-1.4,1.7-2.1,2.5-2.1c1.5,0,2.7,1.2,3.9,3.6c1.1,2.4,1.7,5.9,1.8,10.3
			c0.1,4.5-0.4,8.5-1.4,11.8c0.6-0.4,1.3-1.1,2.1-2.2c0.8-1.1,1.8-2.5,2.9-4.4c2.1-3.5,3.6-6.4,4.4-8.5l0.1-0.1
			c0.3,0,0.5,0.3,0.5,0.9c0,1.2-1.2,4-3.7,8.3c-2.5,4.4-4.8,7.3-6.8,8.6C180,182.6,178,184.9,175.6,184.9z M177.4,177
			c-0.7-0.7-1.4-1.6-1.9-2.7c-0.3-0.6-0.5-1.1-0.7-1.7c-0.2-0.6-0.4-1.2-0.7-1.9c-0.9,4.3-1.4,7.3-1.3,9c0,1.3,0.3,1.9,0.8,1.9
			C175,181.4,176.2,179.9,177.4,177z M177.2,154.7c-0.4,1.4-0.8,3.3-1.1,5.8c0,0.4-0.1,1.2-0.1,2.4c0,1.2,0,2.7,0,4.7
			c0,2.7,0.4,4.7,1,6.1c0.1,0.3,0.5,0.9,1.1,1.8c0.3-1,0.6-2.2,0.8-3.8c0.2-1.5,0.3-3.3,0.4-5.3c0-1,0.1-1.9,0.1-2.7
			c0-0.7,0-1.3,0-1.7c-0.1-5.3-0.7-7.8-1.8-7.5L177.2,154.7z"/>
		<path d="M210.3,169.7c0.6-0.5,1.2-0.9,1.7-1.2c0.5-0.3,1-0.7,1.5-1.1c0.5-0.4,0.9-0.9,1.4-1.5c0.5-0.6,1.1-1.4,1.7-2.3l1.4-2.4
			l0.9-1.3c0,0.2-0.1,0.4-0.3,0.7c-0.1,0.1-0.2,0.5-0.5,1.2c-0.3,0.7-0.6,1.3-0.9,1.8c-0.6,1.4-1.1,2.6-1.6,3.4
			c-0.5,0.9-0.9,1.6-1.4,2.1c-0.5,0.5-1.1,1-1.8,1.3c-0.7,0.3-1.5,0.6-2.6,1c-0.5,1.6-1.3,3.1-2.3,4.6c-2,2.5-4.2,3.7-6.7,3.8
			c-2.7,0-4.9-0.8-6.5-2.4c-1.6-1.6-2.8-3.8-3.6-6.6c-0.7-2.7-1.1-5.9-1-9.4c0.1-3.5,0.5-7.1,1.2-10.8c0.7-3.7,1.7-7.3,3-10.8
			c1.3-3.5,2.8-6.7,4.4-9.5c1.7-2.8,3.5-5.1,5.5-6.8c2-1.7,4-2.6,6.2-2.7c0.3-0.1,0.6-0.2,1-0.2l0.4,0c4.1-0.1,6.1,1.6,6.2,5.1
			c0,1.8-0.4,4.1-1.3,6.8c-0.9,2.7-2.5,5.9-4.9,9.6c-1.3,2.2-3.3,4.8-5.9,8.1c-2.6,3.2-5.6,7-8.8,11.5l-0.8,1.3l-0.3,1.6
			c0,0.4,0.1,0.9,0.5,1.5c0.3,0.6,0.5,1.4,0.5,2.4c0.1,3.5,0.5,5.9,1.4,7.2c0.9,1.4,1.8,2.1,2.9,2.1c1.4,0,2.4-1.2,2.9-3.5
			c0.2-0.6,0.4-1.2,0.4-1.8c-1.7-0.1-3-0.7-3.9-1.6c-1-0.9-1.4-2.1-1.5-3.6c0-1.8,0.6-3.3,1.8-4.5c1.2-1.2,2.7-1.8,4.4-1.9
			c1.7,0,3.1,0.5,4.1,1.6c1,1.1,1.6,2.6,1.6,4.5c0,0.4,0,0.9-0.1,1.5C210.4,169.2,210.4,169.6,210.3,169.7z M210.5,122.5
			c-1.7,0.7-3.1,1.8-4.4,3.3c-1.3,1.5-2.4,3.2-3.5,5.2c-1,2-1.9,4.2-2.7,6.6c-0.7,2.4-1.4,4.8-1.9,7.3c-0.5,2.5-0.9,4.9-1.2,7.4
			c-0.3,2.4-0.5,4.7-0.7,6.7l8.5-10.4c2.1-2.9,3.8-5.8,5.1-8.5c1.3-2.7,2.5-5.3,3.6-7.8c0.9-2.5,1.4-4.8,1.4-6.7
			c0-2.1-1.1-3.2-3.2-3.1L210.5,122.5z M203.2,170.6c0.5,0,0.9-0.1,1.2-0.2c0-0.3,0.1-0.6,0.1-1c0-0.4,0-0.8,0-1.4
			c0-2.1-0.5-3.1-1.4-3.1c-0.9,0-1.3,1.1-1.3,3.1C201.8,169.8,202.3,170.6,203.2,170.6z"/>
		<path d="M232.1,159c0,0.2,0.1,0.4,0.3,0.6l0,0.3l-0.2,0.2c-0.7,2.7-2.1,5.9-4.4,9.7c-2.3,3.8-4.2,5.7-5.8,5.7
			c-0.6,0-1.3-0.3-1.9-1c-0.6-0.7-1-1.3-1-1.8c0-0.2,0-0.3,0.2-0.3l0-0.2c0-1.7,0.1-5.3,0.5-10.9c-0.2,1.3-1.2,3.3-2.9,6.1
			c-1,1.5-1.5,2-1.5,1.3c1-2.4,1.8-4.4,2.5-6c0.7-1.7,1.3-3.1,1.8-4.2c0.2-2.3,1-3.4,2.4-3.5c1.1,0,1.7,0.8,1.7,2.5
			c0,0.9-0.2,1.9-0.6,3l0.2,9.7c0,0.5,0.1,0.9,0.2,1.2l0.5,0.2c0.8,0,2.2-1.6,4-4.8c1.8-3.1,3-5.8,3.7-7.9L232.1,159z M218.5,148.9
			c0-0.3,0.2-0.5,0.5-0.7c0.3-0.3,0.6-0.7,0.9-1.1l2.6-2.4c0.1-0.1,0.3-0.1,0.5-0.3c0.3-0.1,0.5-0.2,0.6-0.2c0.9,0,1.3,1.3,1.4,3.9
			l0,1.2c0,0.6-0.3,1.1-0.8,1.6c-0.6,0.5-1.2,0.8-1.9,0.8c-0.4,0-0.8-0.1-1.2-0.2c-0.4-0.1-0.9-0.4-1.3-0.6c-0.4-0.3-0.7-0.6-1-0.9
			C218.6,149.6,218.5,149.2,218.5,148.9z"/>
		<path d="M121.3,222.6c-1.2,2-2.1,4-2.7,5.9c-0.6,1.9-1.1,3.5-1.2,4.9c-0.2,1.4-0.2,2.5,0.1,3.2c0.2,0.8,0.7,1.1,1.2,0.9
			c0.7-0.2,1.7-0.7,2.8-1.7c1.2-1,2.4-2.4,3.7-4.1c1.3-1.8,2.6-3.9,3.9-6.5c1.3-2.5,2.5-5.4,3.5-8.7c0.1,0.1,0.2,0.2,0.4,0.4
			c0.2,0.2,0.2,0.4,0.1,0.7c-0.4,1.5-1.2,3.5-2.3,6c-1.1,2.5-2.4,5-3.9,7.4c-1.5,2.4-3.1,4.6-4.9,6.4c-1.8,1.8-3.5,2.9-5.2,3.1
			c-1.3,0.1-2.3,0-3-0.3c-0.7-0.4-1.2-0.9-1.7-1.8c-0.1-0.2-0.1-0.2-0.1,0c0.1,0.2,0.1,0.2,0,0.1c-0.2-1-0.3-2.1-0.1-3.3
			c0.1-1.2,0.4-2.5,0.8-3.8c0.4-1.3,0.8-2.6,1.3-3.8c0.5-1.3,1.1-2.4,1.6-3.5c0.2-0.4,0.6-1.1,1.1-2c0.5-0.9,1-1.8,1.6-2.8
			c0.5-1,0.9-1.9,1.3-2.8c0.4-0.9,0.5-1.5,0.4-1.9c-0.1-0.3,0-0.5,0-0.7c0.1-0.2,0.1-0.4,0.2-0.7c0-0.3-0.3-0.4-1.1-0.1
			c-0.8,0.2-1.8,0.9-3.2,2.1c-1.4,1.2-2.9,2.9-4.7,5.3c-1.8,2.4-3.7,5.5-5.6,9.5l-0.9-1.4c1.6-2.8,3.1-5.2,4.5-7.2
			c1.4-2.1,2.8-3.8,3.9-5.2c1.2-1.4,2.2-2.5,3.1-3.2c0.9-0.8,1.5-1.3,1.9-1.6c1-0.6,2-0.9,2.9-0.9c0.9,0,1.6,0.4,2.2,1
			c0.6,0.6,0.9,1.5,0.9,2.7c0,1.2-0.3,2.6-0.9,4.2c-0.3,0.7-0.6,1.3-0.9,2C122.1,221.2,121.7,221.9,121.3,222.6z"/>
		<path d="M135.9,244c-0.9,0-1.8-0.4-2.7-1.1c-1.6-2.2-2.4-4.7-2.5-7.8c0-0.6,0.1-1.4,0.2-2.5c0.1-1.1,0.4-2.5,0.7-4.2
			c0.3-1.7,0.7-3.2,1-4.5c0.3-1.3,0.6-2.3,0.8-3.1c0.2-0.8,0.4-1.4,0.4-1.7c0-0.3,0-0.5,0-0.5c-0.2,0-0.5,0.6-1,1.7
			c-0.3,0.6-0.5,1.2-0.8,1.8c-0.3,0.6-0.6,1.3-1,2c-0.4,0.7-0.7,1.4-0.9,1.8c-0.3,0.5-0.5,0.9-0.6,1.1c-0.3-0.4-0.3-0.7-0.2-0.9
			c2.3-6.3,3.9-10,4.7-11.1c0.3-1.4,1-2.9,1.9-4.4c0.8-1.4,1.7-2.1,2.5-2.1c1.5,0,2.7,1.2,3.9,3.6c1.1,2.4,1.7,5.8,1.8,10.3
			c0.1,4.5-0.4,8.5-1.4,11.8c0.6-0.4,1.3-1.1,2.1-2.2c0.8-1.1,1.8-2.5,2.9-4.4c2.1-3.5,3.6-6.3,4.4-8.5l0.1-0.1
			c0.3,0,0.5,0.3,0.5,0.9c0,1.2-1.2,4-3.7,8.3c-2.5,4.4-4.8,7.3-6.8,8.6C140.3,241.6,138.2,244,135.9,244z M137.7,236
			c-0.7-0.7-1.4-1.6-1.9-2.7c-0.3-0.6-0.5-1.1-0.7-1.7c-0.2-0.6-0.4-1.2-0.7-1.9c-0.9,4.3-1.4,7.3-1.3,9c0,1.3,0.3,1.9,0.8,1.9
			C135.3,240.5,136.5,239,137.7,236z M137.5,213.8c-0.4,1.4-0.8,3.3-1.1,5.8c0,0.4-0.1,1.2-0.1,2.4c0,1.2,0,2.7,0,4.7
			c0,2.7,0.4,4.7,1,6.1c0.1,0.3,0.5,0.8,1.1,1.8c0.3-1,0.6-2.2,0.8-3.8c0.2-1.5,0.3-3.3,0.4-5.3c0-1,0.1-1.9,0.1-2.7
			c0-0.7,0-1.3,0-1.7c-0.1-5.3-0.7-7.8-1.8-7.5L137.5,213.8z"/>
		<path d="M164.2,200.7c0,1.4-0.1,3-0.4,4.8c-0.3,1.9-0.6,3.4-0.9,4.5c-0.3,1.2-0.8,2.9-1.4,5.1c-0.6,2.2-1,3.5-1.2,4l5.8-9.8
			c1.1-1.3,2.1-2,2.9-2c3,0,5.3,1.2,6.9,3.8c1.5,2.1,2.3,4.9,2.3,8.4c0.1,5.3-0.8,9.4-2.6,12.3c-0.5,0.7-0.8,1-0.8,1
			c0.2,0,0.4,0.1,0.6,0.1c1,0,2.1-0.6,3.2-1.8c1.1-1.2,2.2-2.6,3.1-4.4c0.9-1.8,1.7-3.3,2.2-4.5c0.6-1.3,1-2.4,1.3-3.5
			c0.1,0,0.2,0,0.4-0.1c0.2-0.1,0.4-0.1,0.4,0c0.1,0.1,0.1,0.2,0,0.4c-1,5-3.2,9.2-6.7,12.7c-3.4,3.5-7.4,5.3-11.9,5.3
			c-2.6,0-4.2-1.3-4.7-4.1l0-0.9c0-1.4,0.5-2.1,1.4-2.1c0.6,0,1.1,0.3,1.6,0.8c0.5,0.5,0.8,1.2,0.8,2.1c0,0.4,0.2,0.6,0.6,0.6
			c1.5,0,2.6-2.2,3.4-6.5c0.7-3.1,1.1-6.5,1-10.2c0-1.7-0.1-3.1-0.3-4.3c-0.3-1.2-0.8-1.8-1.4-1.8l-0.5,0c-2.5,0-4.7,2.3-6.6,6.8
			c-1.8,4.1-3,9.2-3.7,15.3c-0.7,5.2-1,10.7-0.9,16.5c0.1,4.3,0.3,7.1,0.7,8.5c-1.2,0-2.5-0.6-3.9-1.9c-1.8-1.9-2.7-4.9-2.8-9
			c0-2.3,0.5-6.1,1.6-11.3c0.4-2.8,0.9-5.2,1.5-7.2c0.4-2,1.2-6.2,2.3-12.5c1.1-6.4,1.6-9.6,1.6-9.7c-0.2,0.3-1.8,3.9-4.9,10.7
			c-3.1,6.8-5.2,10.9-6.2,12.3c-0.3,0.4-0.6,0.6-0.9,0.6c-0.1,0.1-0.2,0.2-0.4,0.2c-0.1,0-0.2-0.2-0.2-0.5l0-0.3
			c1.4-2.1,3.6-6.5,6.7-13.4c3.1-6.9,5.2-12.9,6.4-18C162.8,197.8,164.2,198.7,164.2,200.7z"/>
		<path d="M197.7,218c0,0.2,0.1,0.4,0.3,0.6l0,0.3l-0.2,0.2c-0.7,2.7-2.1,5.9-4.4,9.7c-2.3,3.8-4.2,5.7-5.8,5.7
			c-0.6,0-1.3-0.3-1.9-1c-0.6-0.7-1-1.3-1-1.8c0-0.2,0-0.3,0.2-0.3l0-0.2c0-1.7,0.1-5.3,0.5-10.9c-0.2,1.3-1.2,3.3-2.9,6.1
			c-1,1.5-1.5,2-1.5,1.3c1-2.4,1.8-4.4,2.5-6c0.7-1.7,1.3-3.1,1.8-4.2c0.2-2.3,1-3.4,2.4-3.5c1.1,0,1.7,0.8,1.7,2.5
			c0,0.9-0.2,1.9-0.6,3l0.2,9.7c0,0.5,0.1,0.9,0.2,1.2l0.5,0.2c0.8,0,2.2-1.6,4-4.8c1.8-3.1,3-5.8,3.7-7.9L197.7,218z M184.1,207.9
			c0-0.3,0.2-0.5,0.5-0.7c0.3-0.3,0.6-0.7,0.9-1.1l2.6-2.4c0.1-0.1,0.3-0.1,0.5-0.3c0.3-0.1,0.5-0.2,0.6-0.2c0.9,0,1.3,1.3,1.4,3.9
			l0,1.2c0,0.6-0.3,1.1-0.8,1.6c-0.6,0.5-1.2,0.8-1.9,0.8c-0.4,0-0.8-0.1-1.2-0.2c-0.4-0.1-0.9-0.4-1.3-0.6c-0.4-0.3-0.7-0.6-1-0.9
			C184.2,208.5,184.1,208.2,184.1,207.9z"/>
		<path d="M211.1,230.9c-0.6-0.3-1-0.9-1.2-1.7c-0.2-0.9-0.4-1.8-0.4-2.9c0-1.1,0-2.1,0.1-3.2c0.1-1.1,0.2-1.9,0.3-2.6
			c-0.6,1.9-1.2,3.5-1.7,4.8c-0.5,1.3-0.9,2.3-1.3,2.9c-1.3,2.5-2.8,3.9-4.4,4c-2,0.2-3.1-3.5-3.2-11.1c0-1,0-2,0-2.8
			c0-0.8,0-1.5,0-2.1l-1.3,3.6c-1.2,3.1-2.2,5.3-2.9,6.4c-0.5,0.8-0.9,1.3-1.5,1.3c-0.2,0-0.3,0-0.4-0.1c1.4-2.3,2.4-5,3.2-8.2
			c0.3-1.2,0.7-2.3,0.9-3.2c0.3-0.9,0.5-1.7,0.8-2.3c-0.2,0-0.6-0.2-1.2-0.4c-0.6-0.2-0.9-0.3-1.1-0.4c-0.1-0.1-0.3-0.3-0.4-0.6
			c-0.2-0.3-0.3-0.7-0.3-1.1c0-0.6,0.2-1,0.5-1.4c0.4-0.4,0.8-0.9,1.2-1.5c0.5-0.6,1.1-1,1.7-1.3c0.6-0.3,1.2-0.4,1.7-0.5
			c0.5,0,1,0.1,1.3,0.4c0.3,0.3,0.5,0.6,0.5,1.1l0,0.9c0.9,0,1.3,1.2,1.4,3.6c0,0.6,0,1.1-0.1,1.4l0.2,1.2l0.1,4.6c0,0.3,0,0.6,0,1
			c0,0.4-0.1,0.9-0.1,1.3c0,0.5-0.1,0.9-0.1,1.3c0,0.4,0,0.8,0,1c0.3,1.6,0.8,2.4,1.4,2.4c0.5,0,0.9-0.4,1.3-1.2
			c0.9-1.3,1.8-3.6,2.9-7.1c0.7-1.8,1.3-4.1,1.8-6.8c0.1-0.8,0.2-1.2,0.1-1.2l0.2,0l0.2-0.2c-0.1,0-0.1,0,0-0.2l1.2-0.6l0.5-0.2
			c0.4,0,0.6,0.1,0.6,0.5l0,1.3l-0.1,1.5c-0.2,0.9-0.5,2-0.7,3.1c-0.2,1.1-0.4,2.3-0.5,3.6c-0.1,0.6-0.2,1.3-0.2,2.3
			c0,1,0.1,1.8,0.3,2.5c0.2,0.7,0.4,1.1,0.8,1.3c0.4,0.2,0.9-0.3,1.5-1.3c0.9-1.3,1.8-3.6,2.9-7.1c0.7-1.8,1.3-4.1,1.8-6.8
			c0.1-0.8,0.2-1.2,0.1-1.2l0.2,0l0.2-0.2c-0.1,0-0.1,0,0-0.2l1.2-0.6l0.5-0.2c0.4,0,0.6,0.1,0.6,0.5l0,1.3l-0.1,1.5
			c-0.2,0.9-0.5,2-0.7,3.1c-0.2,1.1-0.4,2.3-0.5,3.6c-0.2,0.8-0.3,2.2-0.2,4.1c0,2.2,0.4,4.2,1,5.9c0,1.7,0.1,2.5,0.3,2.5
			c0.3,0,0.6-0.2,0.9-0.7l2.2-2.3l1.7-3.1c0.7-1.1,1.1-1.8,1.4-2.4c0.3-0.5,0.5-0.8,0.5-0.9l0.3,0.2l0,0.2l-0.2,0.2
			c0,0.6-0.1,1-0.5,1c-0.4,0.9-0.8,1.8-1.2,2.7c-0.5,0.9-0.9,1.7-1.3,2.2c-0.2,0.3-0.4,0.6-0.6,0.9c-0.3,0.4-0.5,0.7-0.8,1.1
			c-0.3,0.3-0.5,0.7-0.7,0.9c-0.2,0.3-0.4,0.5-0.5,0.7c-0.9,1.1-1.7,1.7-2.3,1.7c-2,0-3-1.7-3.1-5.3c0-1.5,0-3,0.1-4.5
			c0.1-1.5,0.2-2.9,0.4-4.3c-0.6,1.9-1.2,3.5-1.7,4.8c-0.5,1.3-0.9,2.3-1.3,2.9C214.1,229.3,212.7,230.7,211.1,230.9z"/>
		<path d="M248.6,234.1c0.4,0,1-0.4,1.9-1.2c0.8-0.8,1.9-2.2,3.2-4.3c0.7-1.1,1.2-2,1.6-2.8c0.4-0.8,0.7-1.5,1-2.3
			c0.3-0.7,0.5-1.5,0.8-2.2c0.2-0.8,0.6-1.6,1-2.6l0.3,0c0,0.2,0.1,0.4,0.3,0.5l0,0.3l-0.2,0.2c-0.1,0.6-0.3,1.3-0.5,1.9
			c-0.2,0.7-0.5,1.4-0.8,2.2c-0.3,0.8-0.8,1.8-1.3,2.9c-0.5,1.1-1.2,2.5-2,4.1c-1.6,3.3-3.1,5.8-4.5,7.4c-1.4,1.6-2.4,2.5-3,2.5
			c-0.5,0-1.1-0.4-1.8-1.2c-0.7-0.8-1.3-1.9-2-3.4c-0.7-1.4-1.4-3.1-2.1-5.1c-0.7-2-1.4-4.1-2.1-6.4c-0.8,1.5-1.3,2.6-1.6,3.5
			c-0.2,0.9-0.4,1.7-0.4,2.5c-0.4,0.2-0.5,0.5-0.5,1.1c0,0.3,0,0.7,0.1,1.2c0,0.5,0.1,1.2,0.1,2.1c0.2,1.7,0.3,2.6,0.3,3
			c0,0.3,0,0.4-0.1,0.4c-0.2,0.1-0.4,0.1-0.7,0.1c-0.3,0-0.6,0-1,0.1c-2.6,0-3.9-1.2-4-3.8c0-0.5,0-1.3,0.1-2.4
			c0.1-1.1,0.2-2.4,0.4-4.1c0.1-0.8,0.2-1.8,0.2-2.8c0.1-1,0.1-2.1,0.1-3c0-1,0-1.9,0-2.7c0-0.8,0-1.4,0-1.8
			c-0.3,1.3-1.3,3.3-2.9,6.1c-1,1.5-1.5,2-1.5,1.3c1-2.4,1.8-4.4,2.5-6c0.7-1.7,1.3-3.1,1.8-4.2c0.2-2.3,1-3.4,2.4-3.5
			c1.1,0,1.7,0.8,1.7,2.5c0,0.9-0.2,1.9-0.6,3c-0.1,0.8-0.2,1.3-0.2,1.5c0,0.2,0,0.4,0.1,0.7c0.1,0.3,0.1,0.7,0.2,1.4
			c0.1,0.6,0.1,1.8,0.1,3.5l0,2l0.1,1.2c0.4-0.6,0.9-1.7,1.7-3.1c0.8-1.4,1.6-3.1,2.5-4.9c0.9-1.8,1.9-3.8,2.9-5.9
			c1-2.1,2-4,2.9-5.9c0.9-1.8,1.7-3.5,2.4-5c0.7-1.5,1.2-2.5,1.5-3.1c1.3-3,2.1-4.5,2.4-4.5c0.4,0,0.8,0.2,1.2,0.6
			c0.4,0.4,0.9,1.2,1.5,2.4c0.6,1.3,1.2,3.3,1.9,6c0.2,0.6,0,1.6-0.5,2.9c-0.5,1.3-1.2,2.7-2.1,4.2c-0.9,1.5-1.9,3.1-3,4.7
			c-1.1,1.6-2.2,3.1-3.3,4.4c-1.1,1.3-2,2.4-2.9,3.3c-0.9,0.8-1.5,1.2-1.9,1.2c0.3,1.1,0.7,2.2,1.1,3.3c0.4,1.1,0.9,2.1,1.5,2.9
			c0.5,0.9,1.1,1.5,1.7,2.1C247.2,233.8,247.9,234.1,248.6,234.1z M242.2,224.6c0.4-0.4,1-1.1,1.7-2.2c0.7-1.1,1.5-2.3,2.3-3.7
			c0.8-1.4,1.5-2.8,2.2-4.3c0.7-1.5,1.3-2.9,1.7-4.1c0.4-1.2,0.7-2.2,0.8-3.1c0.1-0.8-0.2-1.2-0.8-1.2c-0.4,0-1,0.5-1.7,1.5
			c-0.7,1-1.5,2.2-2.4,3.6c-0.9,1.4-1.7,3-2.7,4.7c-0.9,1.7-1.7,3.2-2.5,4.6c0.2,0.6,0.3,1.2,0.5,1.9
			C241.7,223.1,241.9,223.8,242.2,224.6z"/>
		<path d="M260.7,215.3l-1.3,3.6c-1.2,3.2-2.2,5.3-2.9,6.4c-0.5,0.8-0.9,1.3-1.5,1.3c-0.2,0-0.3,0-0.4-0.1c1.4-2.3,2.4-5,3.2-8.2
			c0.6-2.4,1.2-4.2,1.7-5.5c-0.2,0-0.6-0.2-1.2-0.4c-0.6-0.2-0.9-0.3-1.1-0.4c-0.1-0.1-0.3-0.3-0.5-0.5c-0.2-0.3-0.3-0.7-0.3-1.1
			c0-0.3,0-0.5,0.1-0.8c0.1-0.3,0.2-0.5,0.3-0.6c0.1-0.2,0.3-0.4,0.6-0.7c0.3-0.3,0.5-0.6,0.6-0.8c1.1-1.2,2.2-1.8,3.4-1.8
			c1.2,0,1.8,0.5,1.8,1.5l0,0.9c0.9,0,1.3,1.2,1.4,3.6c0,0.7,0,1.2-0.1,1.4l0.2,1.2l0.1,4.6c0,0.5-0.1,1.2-0.1,2.3
			c0,1.1-0.1,1.9-0.1,2.4c0.3,1.6,0.8,2.4,1.4,2.4c0.5,0,1-0.4,1.3-1.2c0.9-1.2,1.8-3.5,2.9-7.1c0.7-1.9,1.4-4.2,1.8-6.8
			c0.1-0.8,0.2-1.2,0.1-1.2l0.2,0l0.2-0.2c-0.1,0-0.1,0,0-0.2l1.2-0.6l0.5-0.2c0.4,0,0.6,0.1,0.6,0.5l0,1.3l-0.1,1.5
			c-0.5,1.9-0.9,4.1-1.2,6.7c-0.2,0.9-0.3,2.3-0.2,4.1c0,2.1,0.4,4.1,1,5.9c0,1.7,0.1,2.5,0.3,2.5c0.3,0,0.6-0.2,0.9-0.7l2.2-2.3
			l1.7-3.1c1.3-2,1.9-3.1,2-3.2l0.3,0.2l0,0.2l-0.2,0.2c0,0.6-0.1,0.9-0.5,1c-0.4,0.9-0.8,1.8-1.2,2.7c-0.5,0.9-0.9,1.7-1.3,2.2
			c-0.4,0.6-0.8,1.2-1.4,2.1c-0.6,0.8-1,1.4-1.2,1.6c-0.9,1.1-1.7,1.7-2.3,1.7c-2,0-3-1.7-3.1-5.3c0-3.1,0.1-6,0.5-8.7
			c-1.3,3.9-2.3,6.5-3,7.8c-1.3,2.5-2.8,3.9-4.4,4c-2,0.2-3.1-3.5-3.2-11.1C260.7,218,260.7,216.4,260.7,215.3z"/>
	</g>
	<g>
		<g>
			<path d="M177.3,81.2c8.7-3.3,14.6-10.9,16.1-17.3c3.1-0.6,14.7-3.3,22-13.8c8.5-12.2-3.3-18.3-7.7-13.3c-3.2,3.6-5.9,6.2-8.1,7.7
				c2-1.1,4.9-3,7-4.8c3.4-3,5.9-4.9,9.3-0.5c3.3,4.3-7.4,19.1-22.1,21.3c0-1.2-0.2-2.2-0.6-3.2c6.3-1.4,13-4.6,18.6-11.4
				c-1.2,1.4-7.3,7.8-19.3,10.2c-0.3-0.5-0.7-0.9-1.2-1.2c-4.6-3.5-8-1-10.6,2.1c-3.2-0.1-6.7-0.6-10.5-1.4c0,0,4,1.6,9.7,2.3
				c-0.6,0.8-1.2,1.6-1.7,2.4c-13.3,0.4-14.5-7.3-12-10.9c2.5-3.6,7.7-3.7,13.4-1.6c5.7,2.1,13.6-0.7,13.6-0.7
				c-4.2,0.6-8.1,1.3-16.8-1.7c-8.6-3.1-17.4,4.3-14,10.9c3,5.7,10.7,6.8,12.8,7c-3.1,2.4-7.7,4-12,4.4c0,0,8.9-0.3,13.9-4
				c5-3.8,6.2-9.8,11.9-6.9c5.7,2.9-0.5,16-10.1,20.3c-9.6,4.3-26.3,4.7-31.7-4.6c0,0-3.6-6.3,11.9-4.4c0,0-12.8-4-13.7,3.6
				C144.7,79.4,163.5,86.4,177.3,81.2z"/>
			<path d="M151.3,70.9c0.9,1.8,20.9,4.6,32.4-9.5c0,0-11.2,12.8-31.4,8.4C152.3,69.8,150.4,69.1,151.3,70.9z"/>
			<path d="M199.6,44.5c-1.3,0.7-2.2,1.2-2.2,1.2C198,45.5,198.7,45.1,199.6,44.5z"/>
			<path d="M237.1,53c0,0,8.7,3.2,9.4,6.6c0.8,3.4-5.4,3.7-10.7,3.9c-5.3,0.2-13.8-0.3-24.5,13.3c0,0-3.4,5.2-8.3,1.5
				c-4.9-3.7-1.1-9.6,5.7-16c6.8-6.3,15.6-10.4,24.3-9.7c0,0-13.6-2.8-28.1,10.8C190.4,77,206.2,86.1,212,81
				c5.9-5.1,5.3-13.8,23.9-15.3C254.4,64.3,251.3,56.5,237.1,53z"/>
			<path d="M206.2,68.3c-0.8,1.9,1,1.3,1,1.3c14.9-20.3,34.5-12.1,34.5-12.1C220.6,48,206.2,68.3,206.2,68.3z"/>
			<path d="M214.3,64.6c12.1-8.5,21.4-6.2,21.4-6.2C223.5,54.8,214.3,64.6,214.3,64.6z"/>
			<path d="M204.1,74.7c-0.6,0.4-0.6,1.4,0,2.3c0.6,0.9,1.7,1.3,2.3,0.9c0.6-0.4,0.6-1.4,0-2.3C205.7,74.7,204.7,74.3,204.1,74.7z"
				/>
		</g>
	</g>
	<g>
		<g>
			<path d="M176.2,116.5c3.5,2.2,14.6,4.2,21.6-0.8c7-5,3.5,0,8.7-7.2c5.2-7.3,5.2-7.2,4.4-11.8c-0.8-4.6-8.3-6.8-8.5-8.6
				c-0.2-1.8-3.2-8.7-15.1-5.7c0,0,9.8-1.1,11.5,3.5c1.7,4.6,1.7,5,6.7,8.5c5,3.5,4.2,6.5,0.7,10.1c-3.5,3.7-2.8,6.1-8.5,8.2
				c-5.6,2.2-7.8,4.6-14.6,3.6c-5.5-0.8-8.4-3.2-9.3-4.1c12.8-15.9,25.4-20.3,25.4-20.3c-9.4,1.5-22.2,14-26.1,17.9
				c-0.3-1.8-0.9-4.6-1.6-7.1c-1.2-4.1-0.9-7,1.9-11.7c2.9-4.6,6.6-6.7,9.7-7.9c0,0-14.6,2.9-14.1,17.4c0.5,14.5,1.8,8.4,0.3,13.3
				C169.5,113.8,172.8,114.3,176.2,116.5z"/>
			<path d="M187.2,95c0,0-2.6,0.8-3.5,0.6c-1-0.2-0.6-2.8-0.6-2.8s-1.4,1.5-1.4,4.3c0,0-5.3,5.1-7.1,8.6
				C174.5,105.6,182.5,97.2,187.2,95z"/>
			<path d="M177.1,112.4c0,0,3.6-1.5,4.5-0.6c0.9,0.9,4.6-0.3,6-2.5c1.5-2.2,2.4-2.7,4.3-3.1c1.9-0.3,3.3-3.5,2-3.1
				c-1.3,0.4-1.1,2.2-3.2,2.1c-2.1-0.1-3.6,2-4.2,3.3c-0.6,1.3-5.1,1.4-5.1,1.4s7.5-9.1,14.5-13.9C196,96.1,184.5,102.7,177.1,112.4
				z"/>
			<path d="M191.4,113c1.4-1.3,1.7-2.3,4.6-1.9c2.8,0.4,6.6-4.5,5.6-7.8c0,0-1.2,5.6-4.1,5.6c-2.9,0-4.5-0.2-6.1,2.5
				c-1.7,2.7-4.9,2.8-4.9,2.8S189.9,114.3,191.4,113z"/>
			<path d="M204.7,101.1c0.9-0.9,2-3.5,0.7-4.6c-1.4-1.1-1.2,4.8-2,2.8c-0.8-2-6-4.1-2.6-1.3c3.4,2.8,2.9,6.2,2.9,6.2
				C204.8,102.7,203.9,102,204.7,101.1z"/>
			<path d="M194.1,89.5c4.1-0.5,0.5-2.6-2.7-0.6c-3.1,2,0.4-6-1.3-4.2c-1.6,1.8-2,0.8-1.5,4.6c0.5,3.8-2.7,0.4-2.2,3.4
				C186.5,92.6,190,90,194.1,89.5z"/>
			<path d="M181.9,87.1c-4.9-0.7-3.5,6-6.5,8.3c-3,2.3-1.4,5.7-1.4,5.7c1.4-5.5,2.7-3.9,2.7-3.9c4.5,2.8,1.2-3.5,1.2-3.5
				C179.5,86.7,181.9,87.1,181.9,87.1z"/>
		</g>
	</g>
	<path d="M223.9,73.6c-5,3.3-8.8,10.7-8.1,18.7c0.7,8,13.3,17.4,16.1,18.1c0,0-4.2-3.5-7-7.3c-2.9-3.8-3.3-7.3-3.4-9.2
		c0-1.8-1.3-6.9-1.3-6.9s1.4,1.2,3.9,1.3c2.5,0.1,5.5,3.8,5.5,3.8s-0.9-6.3-4.9-9.4c0,0,3.7,1.6,5.4,1.4c0.7-0.1,2.1-0.3,3.6-0.2
		c5.5,6.4,4.2,12.9,4.2,12.9c1.8-6.1-0.8-10.6-2.4-12.7c1.7,0.4,3.3,1.3,4,3.3c0,0,0.4-4.6-7.2-9.1c0,0,2.4-0.1,5.2-0.5
		c10,9.1,2.5,22.1,2.5,22.1c-6.7,5.5-14.4,1.9-14.4,1.9c9.7,6.3,17.3,0.2,17.3,0.2c5.8-13.9-0.4-21.6-3.5-24.4
		c2.1-0.4,4.2-0.9,5.4-1.8c0,0-3.9,0.5-7.6-2.6C233.4,70.1,228.9,70.3,223.9,73.6z"/>
</g>
</svg>
