<?xml version="1.0" encoding="utf-8"?>
<!-- Generator: Adobe Illustrator 22.0.1, SVG Export Plug-In . SVG Version: 6.00 Build 0)  -->
<svg version="1.1" xmlns="http://www.w3.org/2000/svg" xmlns:xlink="http://www.w3.org/1999/xlink" x="0px" y="0px"
	 viewBox="0 0 60 60" style="enable-background:new 0 0 60 60;" xml:space="preserve">
<style type="text/css">
	.st0{display:none;}
	.st1{display:inline;}
</style>
<g id="Слой_1" class="st0">
	<g class="st1">
		<g>
			<path d="M58,23.2H47.4v1.9h9.7V29H2.9v-3.9h9.7v-1.9H2c-0.5,0-1,0.4-1,1V30c0,0.5,0.4,1,1,1H58c0.5,0,1-0.4,1-1v-5.8
				C59,23.7,58.6,23.2,58,23.2z"/>
		</g>
	</g>
	<g class="st1">
		<g>
			<rect x="19.4" y="23.2" width="21.3" height="1.9"/>
		</g>
	</g>
	<g class="st1">
		<g>
			<path d="M55.9,29.4c-0.2-0.2-0.5-0.4-0.7-0.4H4.9c-0.3,0-0.6,0.1-0.7,0.4c-0.2,0.2-0.3,0.5-0.2,0.8l5.2,24.9
				c0.5,2.2,2.5,3.9,4.7,3.9h0h32.4c0,0,0,0,0,0c2.3,0,4.3-1.6,4.7-3.9l5.2-24.9C56.1,29.9,56.1,29.6,55.9,29.4z M49,54.8
				c-0.3,1.3-1.5,2.3-2.8,2.3h0c0,0,0,0,0,0H13.8h0c-1.4,0-2.6-1-2.8-2.3L6.1,31h47.9L49,54.8z"/>
		</g>
	</g>
	<g class="st1">
		<g>
			<path d="M20.9,24.9L10.1,4.6C9.7,4,9.2,3.4,8.5,3.1C6.6,2,4.2,2.7,3.1,4.6c0,0.1-0.1,0.1-0.1,0.2l0,0.1C2.4,6,2.4,7.4,3,8.6
				l10.8,20.3c0.4,0.7,0.9,1.2,1.5,1.6c0.6,0.3,1.3,0.5,1.9,0.5c1.4,0,2.7-0.7,3.4-2l0.1-0.2C21.5,27.6,21.5,26.1,20.9,24.9z
				 M19.2,27.8L19.1,28c-0.5,1-1.8,1.3-2.7,0.8c-0.3-0.2-0.6-0.5-0.8-0.8L4.7,7.7c-0.3-0.6-0.3-1.3,0-2c0-0.1,0.1-0.1,0.1-0.2l0-0.1
				c0.6-0.9,1.8-1.2,2.7-0.7c0,0,0,0,0,0c0.3,0.2,0.6,0.5,0.8,0.8l10.8,20.3C19.5,26.5,19.5,27.2,19.2,27.8z"/>
		</g>
	</g>
	<g class="st1">
		<g>
			<path d="M15.5,32.9c-1.6,0-2.9,1.3-2.9,2.9v14.5c0,1.6,1.3,2.9,2.9,2.9s2.9-1.3,2.9-2.9V35.8C18.4,34.2,17.1,32.9,15.5,32.9z
				 M16.5,50.3c0,0.5-0.4,1-1,1s-1-0.4-1-1V35.8c0-0.5,0.4-1,1-1s1,0.4,1,1V50.3z"/>
		</g>
	</g>
	<g class="st1">
		<g>
			<path d="M25.2,32.9c-1.6,0-2.9,1.3-2.9,2.9v14.5c0,1.6,1.3,2.9,2.9,2.9s2.9-1.3,2.9-2.9V35.8C28.1,34.2,26.8,32.9,25.2,32.9z
				 M26.1,50.3c0,0.5-0.4,1-1,1c-0.5,0-1-0.4-1-1V35.8c0-0.5,0.4-1,1-1c0.5,0,1,0.4,1,1V50.3z"/>
		</g>
	</g>
	<g class="st1">
		<g>
			<path d="M34.8,32.9c-1.6,0-2.9,1.3-2.9,2.9v14.5c0,1.6,1.3,2.9,2.9,2.9s2.9-1.3,2.9-2.9V35.8C37.7,34.2,36.4,32.9,34.8,32.9z
				 M35.8,50.3c0,0.5-0.4,1-1,1s-1-0.4-1-1V35.8c0-0.5,0.4-1,1-1s1,0.4,1,1V50.3z"/>
		</g>
	</g>
	<g class="st1">
		<g>
			<path d="M44.5,32.9c-1.6,0-2.9,1.3-2.9,2.9v14.5c0,1.6,1.3,2.9,2.9,2.9s2.9-1.3,2.9-2.9V35.8C47.4,34.2,46.1,32.9,44.5,32.9z
				 M45.5,50.3c0,0.5-0.4,1-1,1s-1-0.4-1-1V35.8c0-0.5,0.4-1,1-1s1,0.4,1,1V50.3z"/>
		</g>
	</g>
	<g class="st1">
		<g>
			<path d="M57,4.8l-0.1-0.2c-1.1-1.9-3.5-2.6-5.4-1.5c0,0,0,0,0,0c-0.7,0.4-1.2,0.9-1.6,1.6L39.2,24.9c-0.7,1.2-0.7,2.6,0,3.9
				l0.1,0.1c0,0,0,0,0,0c0.7,1.3,2.1,2,3.5,2c0.7,0,1.3-0.2,1.9-0.5c0.7-0.4,1.2-0.9,1.5-1.6L57,8.6C57.6,7.4,57.6,6,57,4.8z
				 M55.3,7.7L44.5,28c-0.2,0.3-0.5,0.6-0.8,0.8c-1,0.5-2.2,0.2-2.7-0.8c0,0,0,0,0-0.1l-0.1-0.1c-0.3-0.6-0.3-1.3,0-2L51.6,5.6
				c0.2-0.3,0.5-0.6,0.8-0.8c1-0.5,2.2-0.2,2.7,0.8l0.1,0.2C55.6,6.3,55.6,7.1,55.3,7.7z"/>
		</g>
	</g>
	<g class="st1">
		<g>
			<path d="M41.5,8.4C41.4,8,41,7.8,40.6,7.8h-2.9V2c0-0.5-0.4-1-1-1H23.2c-0.5,0-1,0.4-1,1v5.8h-2.9c-0.4,0-0.8,0.2-0.9,0.6
				c-0.1,0.4,0,0.8,0.3,1.1l10.6,9.7c0.2,0.2,0.4,0.3,0.7,0.3c0.2,0,0.5-0.1,0.7-0.3l10.6-9.7C41.6,9.2,41.7,8.8,41.5,8.4z M30,17.1
				l-8.1-7.4h1.4c0.5,0,1-0.4,1-1V2.9h11.6v5.8c0,0.5,0.4,1,1,1h1.4L30,17.1z"/>
		</g>
	</g>
</g>
<g id="Слой_2" class="st0">
	<g class="st1">
		<g>
			<path d="M19.7,12.6c-0.5,0-0.9,0.4-0.9,0.9c0,1.1-0.9,2-2,2s-2-0.9-2-2s0.9-2,2-2c0.5,0,0.9-0.4,0.9-0.9s-0.4-0.9-0.9-0.9
				c-2.1,0-3.8,1.7-3.8,3.8s1.7,3.8,3.8,3.8s3.8-1.7,3.8-3.8C20.7,13,20.2,12.6,19.7,12.6z"/>
		</g>
	</g>
	<g class="st1">
		<g>
			<path d="M19.7,23.3c-0.5,0-0.9,0.4-0.9,0.9c0,1.1-0.9,2-2,2s-2-0.9-2-2c0-1.1,0.9-2,2-2c0.5,0,0.9-0.4,0.9-0.9
				c0-0.5-0.4-0.9-0.9-0.9c-2.1,0-3.8,1.7-3.8,3.8s1.7,3.8,3.8,3.8s3.8-1.7,3.8-3.8C20.7,23.7,20.2,23.3,19.7,23.3z"/>
		</g>
	</g>
	<g class="st1">
		<g>
			<path d="M30.4,25.2h-6.8c-0.5,0-0.9,0.4-0.9,0.9c0,0.5,0.4,0.9,0.9,0.9h6.8c0.5,0,0.9-0.4,0.9-0.9C31.3,25.6,30.9,25.2,30.4,25.2
				z"/>
		</g>
	</g>
	<g class="st1">
		<g>
			<path d="M30.4,21.3h-6.8c-0.5,0-0.9,0.4-0.9,0.9s0.4,0.9,0.9,0.9h6.8c0.5,0,0.9-0.4,0.9-0.9S30.9,21.3,30.4,21.3z"/>
		</g>
	</g>
	<g class="st1">
		<g>
			<path d="M28.5,35.9h-4.8c-0.5,0-0.9,0.4-0.9,0.9c0,0.5,0.4,0.9,0.9,0.9h4.8c0.5,0,0.9-0.4,0.9-0.9C29.4,36.3,29,35.9,28.5,35.9z"
				/>
		</g>
	</g>
	<g class="st1">
		<g>
			<path d="M30.4,32h-6.8c-0.5,0-0.9,0.4-0.9,0.9s0.4,0.9,0.9,0.9h6.8c0.5,0,0.9-0.4,0.9-0.9S30.9,32,30.4,32z"/>
		</g>
	</g>
	<g class="st1">
		<g>
			<path d="M39.1,14.6H23.6c-0.5,0-0.9,0.4-0.9,0.9c0,0.5,0.4,0.9,0.9,0.9h15.5c0.5,0,0.9-0.4,0.9-0.9S39.6,14.6,39.1,14.6z"/>
		</g>
	</g>
	<g class="st1">
		<g>
			<path d="M35.2,10.7H23.6c-0.5,0-0.9,0.4-0.9,0.9c0,0.5,0.4,0.9,0.9,0.9h11.6c0.5,0,0.9-0.4,0.9-0.9
				C36.2,11.1,35.7,10.7,35.2,10.7z"/>
		</g>
	</g>
	<g class="st1">
		<g>
			<path d="M19.7,33.9c-0.5,0-0.9,0.4-0.9,0.9c0,1.1-0.9,2-2,2s-2-0.9-2-2c0-1.1,0.9-2,2-2c0.5,0,0.9-0.4,0.9-0.9S17.3,31,16.8,31
				c-2.1,0-3.8,1.7-3.8,3.8c0,2.1,1.7,3.8,3.8,3.8s3.8-1.7,3.8-3.8C20.7,34.3,20.2,33.9,19.7,33.9z"/>
		</g>
	</g>
	<g class="st1">
		<g>
			<path d="M43,1H10.1C8.5,1,7.2,2.3,7.2,3.8v40.7c0,1.6,1.3,2.8,2.8,2.8h16.5c0.5,0,0.9-0.4,0.9-0.9c0-0.5-0.4-0.9-0.9-0.9H10.1
				c-0.6,0-1-0.5-1-1V3.8c0-0.6,0.5-1,1-1H43c0.6,0,1,0.5,1,1v30c0,0.5,0.4,0.9,0.9,0.9c0.5,0,0.9-0.4,0.9-0.9v-30
				C45.8,2.3,44.6,1,43,1z"/>
		</g>
	</g>
	<g class="st1">
		<g>
			<path d="M51.6,37.8c-0.8-0.1-1.7,0.2-2.4,0.7c-0.5-0.9-1.4-1.5-2.5-1.6c-0.8-0.1-1.7,0.2-2.4,0.7c-0.5-0.9-1.4-1.5-2.5-1.6
				c-0.6-0.1-1.3,0.1-1.9,0.3V24.7c0-0.9-0.4-1.8-1.1-2.5c-0.7-0.6-1.6-0.9-2.6-0.8c-1.7,0.2-3,1.7-3,3.5v11.6l-2.7,2.7
				c-1.4,1.4-2,3.4-1.5,5.4l2,8.6c0.8,3.5,3.9,5.9,7.5,5.9h8.2c4.2,0,7.7-3.4,7.7-7.7v-10C54.6,39.5,53.2,38,51.6,37.8z M52.7,51.3
				c0,3.2-2.6,5.9-5.9,5.9h-8.2c-2.7,0-5.1-1.9-5.7-4.5l-2-8.6c-0.3-1.3,0.1-2.7,1-3.7l1.4-1.4v3.1c0,0.5,0.4,0.9,0.9,0.9
				c0.5,0,0.9-0.4,0.9-0.9V24.8c0-0.8,0.6-1.6,1.4-1.6c0.4,0,0.9,0.1,1.2,0.4c0.3,0.3,0.5,0.7,0.5,1.1v16c0,0.5,0.4,0.9,0.9,0.9
				c0.5,0,0.9-0.4,0.9-0.9v-1.5c0-0.4,0.2-0.8,0.5-1.1c0.3-0.3,0.7-0.4,1.2-0.4c0.8,0.1,1.4,0.8,1.4,1.6v2.3c0,0.5,0.4,0.9,0.9,0.9
				c0.5,0,0.9-0.4,0.9-0.9v-1.5c0-0.4,0.2-0.8,0.5-1.1c0.3-0.3,0.7-0.4,1.2-0.4c0.8,0.1,1.4,0.8,1.4,1.6v2.3c0,0.5,0.4,0.9,0.9,0.9
				c0.5,0,0.9-0.4,0.9-0.9v-1.5c0-0.4,0.2-0.8,0.5-1.1c0.3-0.3,0.7-0.4,1.2-0.4c0.8,0.1,1.4,0.8,1.4,1.6L52.7,51.3L52.7,51.3z"/>
		</g>
	</g>
</g>
<g id="Слой_3">
	<g>
		<circle cx="20.7" cy="31.7" r="1"/>
		<circle cx="20.7" cy="36.8" r="1"/>
		<circle cx="25.1" cy="32.3" r="1"/>
		<circle cx="17.4" cy="47.6" r="1"/>
		<circle cx="23.6" cy="52.8" r="1"/>
		<circle cx="18.4" cy="52.8" r="1"/>
		<circle cx="16.4" cy="40.4" r="1"/>
		<circle cx="19.5" cy="42.4" r="1"/>
		<circle cx="16.4" cy="35.2" r="1"/>
		<circle cx="16.4" cy="29" r="1"/>
		<circle cx="36" cy="27.9" r="1"/>
		<circle cx="30.9" cy="29" r="1"/>
		<circle cx="21.5" cy="26.9" r="1"/>
		<circle cx="38.1" cy="23.8" r="1"/>
		<circle cx="41.2" cy="26.9" r="1"/>
		<circle cx="46.4" cy="24.8" r="1"/>
		<circle cx="44.3" cy="31" r="1"/>
		<circle cx="27.1" cy="28.1" r="1"/>
		<path d="M42.5,34.9l-5-5l-6.9,1.9L29,37.5l-5.7,1.6L21.4,46l5,5l5.7-1.6l4.2,4.2l6.9-1.9l1.9-6.9L41,40.7L42.5,34.9z M32.3,33.4
			l4.6-1.3l3.3,3.3L39,40.1l-4.6,1.3L31,38L32.3,33.4z M23.7,45.4l1.3-4.6l4.6-1.2l3.3,3.3l-1.3,4.6l-4.6,1.2L23.7,45.4z M41.6,50
			L37,51.3L33.7,48l1.3-4.6l4.6-1.2l3.3,3.3L41.6,50z"/>
		<path d="M46.6,11.8c-2-0.7-3-1.1-3.2-1.9c1.9-0.5,3.4-2.2,3.4-4.3V5.4c0-2.4-2-4.4-4.4-4.4H19.2c-2.4,0-4.4,2-4.4,4.4v0.1
			c0,2.1,1.4,3.8,3.4,4.3c-0.3,0.8-1.3,1.2-3.3,1.9c-3,1.1-7,2.5-7,8v1.8c0,0.3,0.2,0.7,0.5,0.9c0.3,0.2,0.6,0.2,1,0.1l0.9-0.4v26.2
			C10.2,54.2,15,59,20.9,59h19.8c5.9,0,10.7-4.8,10.7-10.7V24.2c0.2-0.1,0.5-0.1,0.7-0.3c1-0.5,1.6-1.6,1.6-2.7v-1.5
			C53.6,14.3,49.6,12.8,46.6,11.8z M49.3,48.3c0,4.7-3.9,8.6-8.6,8.6H20.9c-4.7,0-8.6-3.9-8.6-8.6v-27l1.2-0.5c0.5-0.2,1,0,1.2,0.4
			l1.4,2.3c0.4,0.7,1.2,1.3,2,1.4c0.2,0,0.4,0.1,0.6,0.1c0,0,0,0,0,0c0,0,0.1,0,0.1,0c0.2,0,0.3,0,0.5-0.1c0.1,0,0.1,0,0.2,0
			c0.1,0,0.3-0.1,0.4-0.1c0.1,0,0.1,0,0.2-0.1c0.2-0.1,0.3-0.2,0.5-0.3l1.4-1c0.4-0.3,0.9-0.3,1.3,0.1l0.6,0.6
			c0.6,0.6,1.5,1,2.4,0.9c0.9-0.1,1.7-0.5,2.2-1.2l0.4-0.6c0.4-0.5,1.2-0.6,1.6,0.1c0.6,0.8,1.6,1.3,2.6,1.2c1,0,1.9-0.6,2.5-1.4
			l2-3.2c0.2-0.3,0.6-0.5,0.9-0.5c0.4,0,0.7,0.3,0.8,0.6l0.7,1.9c0.4,1.1,1.3,1.8,2.4,2c1.1,0.2,2.2-0.3,2.9-1.2l0.1-0.1
			c0.3-0.4,0.9-0.5,1.3-0.2l2.1,1.4c0.1,0.1,0.3,0.2,0.4,0.2L49.3,48.3L49.3,48.3z M51.6,21.2c0,0.5-0.4,0.8-0.5,0.9
			c-0.1,0-0.2,0.1-0.4,0.1l-0.2,0c-0.1,0-0.1,0-0.2,0c-0.1,0-0.1,0-0.2-0.1l-2.1-1.4c-0.3-0.2-0.7-0.4-1.1-0.5
			c-1.1-0.2-2.3,0.2-3.1,1.2l-0.1,0.1c-0.3,0.4-0.8,0.4-0.9,0.4c-0.2,0-0.6-0.1-0.8-0.6l-0.7-1.9c-0.4-1.1-1.4-1.9-2.6-2
			c-1.2-0.1-2.3,0.4-2.9,1.4l-2,3.2c-0.2,0.3-0.5,0.5-0.8,0.5c-0.3,0-0.6-0.1-0.9-0.5c-0.6-0.8-1.5-1.2-2.4-1.2
			c-1,0-1.9,0.4-2.4,1.2l-0.4,0.6c-0.2,0.2-0.4,0.4-0.7,0.4c-0.3,0-0.6-0.1-0.8-0.3l-0.6-0.6c-1.1-1.1-2.8-1.2-4-0.3l-1.4,1
			c-0.2,0.2-0.5,0.2-0.8,0.2c-0.3-0.1-0.5-0.2-0.7-0.5l-1.4-2.3c-0.1-0.2-0.3-0.4-0.4-0.6c0,0-0.1-0.1-0.1-0.1
			c-0.2-0.1-0.3-0.3-0.5-0.4c0,0,0,0-0.1,0c-0.2-0.1-0.4-0.2-0.6-0.3c-0.1,0-0.1,0-0.2,0c-0.2,0-0.4-0.1-0.6-0.1c0,0-0.1,0-0.1,0
			c0,0,0,0,0,0c-0.1,0-0.2,0-0.4,0c-0.1,0-0.1,0-0.2,0c-0.2,0-0.4,0.1-0.6,0.2L10,20v-0.3c0-4,2.7-5,5.6-6c2-0.7,4.3-1.6,4.6-3.7
			h2.6c0.6,0,1-0.5,1-1c0-0.6-0.5-1-1-1h-3.5c0,0,0,0,0,0c0,0,0,0,0,0c-1.3,0-2.3-1.1-2.3-2.3V5.4c0-1.3,1.1-2.3,2.3-2.3h23.1
			c1.3,0,2.3,1.1,2.3,2.3v0.1c0,1.3-1.1,2.3-2.4,2.3H29.6c-0.6,0-1,0.5-1,1s0.5,1,1,1h11.7c0.3,2.2,2.6,3,4.6,3.7c2.9,1,5.6,2,5.6,6
			V21.2z"/>
	</g>
</g>
</svg>
